<?xml version="1.0" encoding="UTF-8" standalone="no"?>
<svg
   xmlns:dc="http://purl.org/dc/elements/1.1/"
   xmlns:cc="http://creativecommons.org/ns#"
   xmlns:rdf="http://www.w3.org/1999/02/22-rdf-syntax-ns#"
   xmlns:svg="http://www.w3.org/2000/svg"
   xmlns="http://www.w3.org/2000/svg"
   xmlns:sodipodi="http://sodipodi.sourceforge.net/DTD/sodipodi-0.dtd"
   xmlns:inkscape="http://www.inkscape.org/namespaces/inkscape"
   version="1.1"
   id="svg2"
   viewBox="0 0 744.09448819 1052.3622047"
   height="297mm"
   width="210mm"
   inkscape:version="0.91 r13725"
   sodipodi:docname="drawing.svg">
  <sodipodi:namedview
     pagecolor="#ffffff"
     bordercolor="#666666"
     borderopacity="1"
     objecttolerance="10"
     gridtolerance="10"
     guidetolerance="10"
     inkscape:pageopacity="0"
     inkscape:pageshadow="2"
     inkscape:window-width="1276"
     inkscape:window-height="761"
     id="namedview3449"
     showgrid="false"
     inkscape:zoom="0.5"
     inkscape:cx="372.04724"
     inkscape:cy="908.26953"
     inkscape:window-x="0"
     inkscape:window-y="37"
     inkscape:window-maximized="0"
     inkscape:current-layer="svg2" />
  <defs
     id="defs4" />
  <metadata
     id="metadata7">
    <rdf:RDF>
      <cc:Work
         rdf:about="">
        <dc:format>image/svg+xml</dc:format>
        <dc:type
           rdf:resource="http://purl.org/dc/dcmitype/StillImage" />
        <dc:title />
      </cc:Work>
    </rdf:RDF>
  </metadata>
  <path
     style="fill:none;fill-rule:evenodd;stroke:#000000;stroke-width:1px;stroke-linecap:butt;stroke-linejoin:miter;stroke-opacity:1"
     d="m 42,150.3622 c 198,110 212,170 258,50 46,-119.999995 -72,-34 -72,-34 l -130,-38 c 0,0 -180,-155.999995 76,-47.999995 C 430,188.3622 120,182.3622 120,182.3622 c 0,0 208,-259.999995 248,-121.999995"
     id="path3351"
     inkscape:connector-curvature="0" />
  <path
     sodipodi:type="spiral"
     style="fill:none;fill-rule:evenodd;stroke:#000000;stroke-width:1px;stroke-linecap:butt;stroke-linejoin:miter;stroke-opacity:1"
     id="path3353"
     sodipodi:cx="112"
     sodipodi:cy="268.36221"
     sodipodi:expansion="1"
     sodipodi:revolution="3"
     sodipodi:radius="176.18172"
     sodipodi:argument="-18.160631"
     sodipodi:t0="0"
     d="m 112,268.36221 c 6.81882,5.61551 -4.20542,11.96213 -9.33334,11.33333 -13.896331,-1.704 -17.769555,-18.91742 -13.333319,-30 7.935385,-19.82413 33.072229,-24.48915 50.666669,-15.33332 25.82055,13.43656 31.38509,47.41082 17.33331,71.33334 -18.72881,31.88496 -61.813553,38.35479 -92.000005,19.3333 -37.986568,-23.9366 -45.362376,-76.2466 -21.333292,-112.66667 29.10244,-44.10958 90.696677,-52.39184 133.333337,-23.33328 50.24582,34.2445 59.43505,105.15735 25.33328,154 C 163.29479,399.41968 83.041522,409.51632 27.999967,370.36218 -34.541745,325.87276 -45.546213,236.26434 -1.3332955,175.02884 48.266916,106.33188 147.24091,94.419236 214.66671,143.69559 c 74.85541,54.70609 87.67652,163.0533 33.33324,236.66667" />
</svg>
